<?xml version="1.0" standalone="no"?>
<!DOCTYPE svg PUBLIC "-//W3C//DTD SVG 20010904//EN"
 "http://www.w3.org/TR/2001/REC-SVG-20010904/DTD/svg10.dtd">
<svg version="1.0" xmlns="http://www.w3.org/2000/svg"
 width="192.000000pt" height="192.000000pt" viewBox="0 0 192.000000 192.000000"
 preserveAspectRatio="xMidYMid meet">
<metadata>
Created by potrace 1.14, written by Peter Selinger 2001-2017
</metadata>
<g transform="translate(0.000000,192.000000) scale(0.100000,-0.100000)"
fill="#000000" stroke="none">
<path d="M660 1740 l0 -60 30 0 c27 0 30 -3 30 -30 l0 -30 -60 0 -60 0 0 30 0
30 -60 0 -60 0 0 -30 0 -30 -60 0 -60 0 0 -30 c0 -27 -3 -30 -30 -30 -27 0
-30 -3 -30 -30 0 -27 -3 -30 -30 -30 -27 0 -30 -3 -30 -30 l0 -30 -60 0 -60 0
0 -30 c0 -27 -3 -30 -30 -30 l-30 0 0 -120 0 -120 -30 0 -30 0 0 -180 0 -180
30 0 30 0 0 -90 0 -90 30 0 30 0 0 -60 0 -60 60 0 60 0 0 -30 c0 -27 3 -30 30
-30 27 0 30 -3 30 -30 l0 -30 60 0 60 0 0 -30 0 -30 60 0 60 0 0 -30 0 -30 60
0 60 0 0 -30 0 -30 270 0 270 0 0 30 0 30 60 0 60 0 0 60 0 60 30 0 c27 0 30
3 30 30 0 27 3 30 30 30 27 0 30 -3 30 -30 l0 -30 60 0 60 0 0 30 0 30 60 0
60 0 0 30 c0 27 3 30 30 30 27 0 30 3 30 30 0 27 3 30 30 30 27 0 30 3 30 30
l0 30 -60 0 -60 0 0 30 0 30 60 0 60 0 0 60 0 60 30 0 c27 0 30 3 30 30 0 27
3 30 30 30 27 0 30 3 30 30 0 27 -3 30 -30 30 l-30 0 0 90 0 90 30 0 30 0 0
60 0 60 -30 0 c-27 0 -30 -3 -30 -30 0 -27 -3 -30 -30 -30 l-30 0 0 90 0 90
30 0 c27 0 30 3 30 30 0 27 -3 30 -30 30 -27 0 -30 3 -30 30 0 27 -3 30 -30
30 -27 0 -30 3 -30 30 0 27 -3 30 -30 30 -27 0 -30 3 -30 30 l0 30 -60 0 -60
0 0 30 c0 27 -3 30 -30 30 -27 0 -30 -3 -30 -30 0 -27 3 -30 30 -30 27 0 30
-3 30 -30 l0 -30 -60 0 -60 0 0 90 0 90 -30 0 c-27 0 -30 -3 -30 -30 l0 -30
-90 0 -90 0 0 30 c0 27 -3 30 -30 30 -27 0 -30 3 -30 30 l0 30 60 0 60 0 0 30
0 30 -60 0 -60 0 0 -30 0 -30 -60 0 -60 0 0 30 0 30 -120 0 -120 0 0 -30 c0
-27 -3 -30 -30 -30 -27 0 -30 3 -30 30 0 27 -3 30 -30 30 l-30 0 0 -60z m300
-90 c0 -27 -3 -30 -30 -30 -27 0 -30 3 -30 30 0 27 3 30 30 30 27 0 30 -3 30
-30z m-120 -60 c0 -27 -3 -30 -30 -30 -27 0 -30 3 -30 30 0 27 3 30 30 30 27
0 30 -3 30 -30z m360 0 c0 -27 3 -30 30 -30 27 0 30 -3 30 -30 l0 -30 -60 0
-60 0 0 -30 0 -30 -60 0 -60 0 0 -60 0 -60 -60 0 -60 0 0 -30 0 -30 -60 0 -60
0 0 30 c0 27 3 30 30 30 l30 0 0 60 0 60 90 0 90 0 0 30 c0 27 -3 30 -30 30
-27 0 -30 3 -30 30 l0 30 60 0 60 0 0 30 0 30 60 0 60 0 0 -30z m240 -120 c0
-27 -3 -30 -30 -30 l-30 0 0 -60 0 -60 -60 0 -60 0 0 -60 0 -60 -60 0 -60 0 0
-30 0 -30 -60 0 -60 0 0 -30 0 -30 -60 0 -60 0 0 30 0 30 60 0 60 0 0 60 0 60
30 0 c27 0 30 -3 30 -30 0 -27 3 -30 30 -30 l30 0 0 60 0 60 60 0 60 0 0 60 0
60 60 0 60 0 0 30 c0 27 3 30 30 30 27 0 30 -3 30 -30z m300 -60 c0 -27 3 -30
30 -30 27 0 30 -3 30 -30 0 -27 -3 -30 -30 -30 -27 0 -30 -3 -30 -30 0 -27 -3
-30 -30 -30 -27 0 -30 3 -30 30 0 27 -3 30 -30 30 l-30 0 0 -60 0 -60 -30 0
c-27 0 -30 -3 -30 -30 l0 -30 -60 0 -60 0 0 -60 0 -60 -60 0 -60 0 0 -60 0
-60 -60 0 -60 0 0 60 0 60 60 0 60 0 0 60 0 60 30 0 c27 0 30 3 30 30 l0 30
60 0 60 0 0 60 0 60 60 0 60 0 0 60 0 60 60 0 60 0 0 -30z m-60 -390 l0 -60
-30 0 c-27 0 -30 -3 -30 -30 0 -27 -3 -30 -30 -30 -27 0 -30 -3 -30 -30 l0
-30 -60 0 -60 0 0 -30 c0 -27 -3 -30 -30 -30 -27 0 -30 3 -30 30 0 27 3 30 30
30 27 0 30 3 30 30 0 27 3 30 30 30 27 0 30 3 30 30 l0 30 60 0 60 0 0 60 0
60 30 0 30 0 0 -60z m120 30 c0 -27 -3 -30 -30 -30 -27 0 -30 3 -30 30 0 27 3
30 30 30 27 0 30 -3 30 -30z m0 -180 c0 -27 -3 -30 -30 -30 -27 0 -30 -3 -30
-30 0 -27 -3 -30 -30 -30 -27 0 -30 3 -30 30 0 27 3 30 30 30 27 0 30 3 30 30
0 27 3 30 30 30 27 0 30 -3 30 -30z m-480 -150 l0 -60 -30 0 -30 0 0 60 0 60
30 0 30 0 0 -60z m300 0 l0 -60 -30 0 -30 0 0 60 0 60 30 0 30 0 0 -60z m-420
-120 l0 -60 -30 0 -30 0 0 60 0 60 30 0 30 0 0 -60z m300 0 l0 -60 -60 0 -60
0 0 -30 0 -30 -60 0 -60 0 0 30 0 30 60 0 60 0 0 60 0 60 60 0 60 0 0 -60z
m180 -30 c0 -27 -3 -30 -30 -30 -27 0 -30 -3 -30 -30 0 -27 -3 -30 -30 -30
-27 0 -30 -3 -30 -30 l0 -30 -60 0 -60 0 0 30 0 30 60 0 60 0 0 60 0 60 60 0
60 0 0 -30z"/>
<path d="M1080 1530 c0 -27 3 -30 30 -30 27 0 30 3 30 30 0 27 -3 30 -30 30
-27 0 -30 -3 -30 -30z"/>
</g>
</svg>
